{"title":"Mission Impossible Ghost Protocol 2011 DVDRIP XVID AC3-TRiNiTY","uid":7148176,"size":2302087918,"categoryP":"video","categoryS":"movies","magnet":"?xt=urn:btih:3066b95b4d003680eb9ca92c408e25a5d3249fe9&amp;dn=Mission+Impossible+Ghost+Protocol+2011+DVDRIP+XVID+AC3-TRiNiTY&amp;tr=udp%3A%2F%2Ftracker.openbittorrent.com%3A80&amp;tr=udp%3A%2F%2Fopen.demonii.com%3A1337&amp;tr=udp%3A%2F%2Ftracker.coppersurfer.tk%3A6969&amp;tr=udp%3A%2F%2Fexodus.desync.com%3A6969","seeders":0,"leechers":0,"uploader":"MisterNobody","files":-1,"time":1333206488,"description":"General\nComplete name: Mission Impossible Ghost Protocol 2011 DVDRIP XVID AC3-TRiNiTY.avi\nFormat: AVI\nFormat/Info: Audio Video Interleave\nFormat profile: OpenDML\nFile size: 2.10 GiB\nDuration: 2h 12mn\nOverall bit rate: 2 262 Kbps\nWriting library: VirtualDub build 30091/release\n\nVideo\nID: 0\nFormat: MPEG-4 Visual\nFormat profile: Advanced Simple@L5\nFormat settings, BVOP: 2\nFormat settings, QPel: No\nFormat settings, GMC: No warppoints\nFormat settings, Matrix: Default (H.263)\nMuxing mode: Packed bitstream\nCodec ID: XVID\nCodec ID/Hint: XviD\nDuration: 2h 12mn\nBit rate: 1 802 Kbps\nWidth: 720 pixels\nHeight: 304 pixels\nDisplay aspect ratio: 2.35:1\nFrame rate: 23.976 fps\nColor space: YUV\nChroma subsampling: 4:2:0\nBit depth: 8 bits\nScan type: Progressive\nCompression mode: Lossy\nBits/(Pixel*Frame): 0.343\nStream size: 1.67 GiB (80%)\nWriting library: XviD 1.2.1 (UTC 2008-12-04)\n\nAudio\nID: 1\nFormat: AC-3\nFormat/Info: Audio Coding 3\nMode extension: CM (complete main)\nCodec ID: 2000\nDuration: 2h 12mn\nBit rate mode: Constant\nBit rate: 448 Kbps\nChannel(s): 6 channels\nChannel positions: Front: L C R, Side: L R, LFE\nSampling rate: 48.0 KHz\nBit depth: 16 bits\nCompression mode: Lossy\nStream size: 426 MiB (20%)\nAlignment: Aligned on interleaves\nInterleave, duration: 42 ms (1.00 video frame)\nInterleave, preload duration: 512 ms","torrent":{"xt":"urn:btih:3066b95b4d003680eb9ca92c408e25a5d3249fe9","amp;dn":"Mission+Impossible+Ghost+Protocol+2011+DVDRIP+XVID+AC3-TRiNiTY","amp;tr":["udp%3A%2F%2Ftracker.openbittorrent.com%3A80","udp%3A%2F%2Fopen.demonii.com%3A1337","udp%3A%2F%2Ftracker.coppersurfer.tk%3A6969","udp%3A%2F%2Fexodus.desync.com%3A6969"],"infoHash":"3066b95b4d003680eb9ca92c408e25a5d3249fe9","infoHashBuffer":{"type":"Buffer","data":[48,102,185,91,77,0,54,128,235,156,169,44,64,142,37,165,211,36,159,233]},"announce":[],"urlList":[]}}